<?xml version="1.0" standalone="no"?>
<!DOCTYPE svg PUBLIC "-//W3C//DTD SVG 20010904//EN"
 "http://www.w3.org/TR/2001/REC-SVG-20010904/DTD/svg10.dtd">
<svg version="1.0" xmlns="http://www.w3.org/2000/svg"
 width="225.000000pt" height="224.000000pt" viewBox="0 0 225.000000 224.000000"
 preserveAspectRatio="xMidYMid meet">

<g transform="translate(0.000000,224.000000) scale(0.100000,-0.100000)"
fill="currentColor" stroke="none">
<path d="M551 2069 c-334 -220 -515 -616 -461 -1011 32 -240 129 -431 310
-608 342 -337 852 -394 1273 -143 94 56 254 207 314 298 328 491 200 1143
-288 1464 -51 34 -96 61 -101 61 -8 0 -88 -152 -88 -167 0 -5 20 -19 44 -32
25 -12 74 -47 110 -77 308 -254 398 -680 219 -1039 -175 -352 -582 -538 -965
-441 -549 139 -808 754 -527 1253 55 97 198 243 286 293 34 19 63 38 63 43 0
14 -80 167 -88 167 -5 0 -50 -27 -101 -61z"/>
</g>
</svg>
